<svg xmlns="http://www.w3.org/2000/svg" viewBox="0 0 390 390" width="390" height="390"><defs><clipPath id="roundClip10"><circle cx="195" cy="195" r="195"/></clipPath></defs><rect width="390" height="390" fill="#000"/><g clip-path="url(#roundClip10)">
  <rect x="0" y="0" width="390" height="390" fill="#000000"/>
  <rect x="62" y="81" width="58" height="46" fill="#171717"/>
  <rect x="45" y="98" width="92" height="12" fill="#171717"/>
  <circle cx="62" cy="98" r="17" fill="#171717"/>
  <circle cx="120" cy="98" r="17" fill="#171717"/>
  <circle cx="62" cy="110" r="17" fill="#171717"/>
  <circle cx="120" cy="110" r="17" fill="#171717"/>
  <rect x="62" y="82" width="58" height="1" fill="#2f2f36"/>
  <rect x="62" y="125" width="58" height="1" fill="#0f0f12"/>
  <rect x="166" y="81" width="58" height="46" fill="#171717"/>
  <rect x="149" y="98" width="92" height="12" fill="#171717"/>
  <circle cx="166" cy="98" r="17" fill="#171717"/>
  <circle cx="224" cy="98" r="17" fill="#171717"/>
  <circle cx="166" cy="110" r="17" fill="#171717"/>
  <circle cx="224" cy="110" r="17" fill="#171717"/>
  <rect x="166" y="82" width="58" height="1" fill="#2f2f36"/>
  <rect x="166" y="125" width="58" height="1" fill="#0f0f12"/>
  <rect x="270" y="81" width="58" height="46" fill="#171717"/>
  <rect x="253" y="98" width="92" height="12" fill="#171717"/>
  <circle cx="270" cy="98" r="17" fill="#171717"/>
  <circle cx="328" cy="98" r="17" fill="#171717"/>
  <circle cx="270" cy="110" r="17" fill="#171717"/>
  <circle cx="328" cy="110" r="17" fill="#171717"/>
  <rect x="270" y="82" width="58" height="1" fill="#2f2f36"/>
  <rect x="270" y="125" width="58" height="1" fill="#0f0f12"/>
  <rect x="65" y="135" width="260" height="174" fill="#171717"/>
  <rect x="45" y="155" width="300" height="134" fill="#171717"/>
  <circle cx="65" cy="155" r="20" fill="#171717"/>
  <circle cx="325" cy="155" r="20" fill="#171717"/>
  <circle cx="65" cy="289" r="20" fill="#171717"/>
  <circle cx="325" cy="289" r="20" fill="#171717"/>
  <rect x="65" y="136" width="260" height="1" fill="#2f2f36"/>
  <rect x="65" y="307" width="260" height="1" fill="#0f0f12"/>
  <line x1="68" y1="195" x2="322" y2="195" stroke="#2c2c2e" stroke-width="1" stroke-linecap="round"/>
  <line x1="68" y1="230" x2="322" y2="230" stroke="#2c2c2e" stroke-width="1" stroke-linecap="round"/>
  <line x1="68" y1="266" x2="322" y2="266" stroke="#2c2c2e" stroke-width="1" stroke-linecap="round"/>
  <rect x="73" y="214" width="11" height="16" fill="#ff453a"/>
  <rect x="94" y="230" width="11" height="8" fill="#30d158"/>
  <rect x="115" y="198" width="11" height="32" fill="#ff453a"/>
  <rect x="137" y="230" width="11" height="24" fill="#30d158"/>
  <rect x="158" y="186" width="11" height="44" fill="#ff453a"/>
  <rect x="179" y="230" width="11" height="36" fill="#30d158"/>
  <rect x="200" y="218" width="11" height="12" fill="#ff453a"/>
  <rect x="221" y="230" width="11" height="56" fill="#30d158"/>
  <rect x="242" y="206" width="11" height="24" fill="#ff453a"/>
  <rect x="264" y="230" width="11" height="16" fill="#30d158"/>
  <rect x="285" y="182" width="11" height="48" fill="#ff453a"/>
  <rect x="306" y="230" width="11" height="28" fill="#30d158"/>
  <text x="96" y="55.7" font-family="'Noto Sans SC','Microsoft YaHei',sans-serif" font-weight="500" font-size="22" fill="#ffffff" text-anchor="start">资金流</text>
  <text x="330" y="75.9" font-family="'Zepp OS Number','DIN Alternate','Bahnschrift',sans-serif" font-size="14" fill="#8e8e93" text-anchor="end">3/6</text>
  <text x="60" y="75.9" font-family="'Noto Sans SC','Microsoft YaHei',sans-serif" font-size="14" fill="#8e8e93" text-anchor="start">510300</text>
  <text x="91" y="97.05" font-family="'Noto Sans SC','Microsoft YaHei',sans-serif" font-size="13" fill="#8e8e93" text-anchor="middle">今日主力</text>
  <text x="91" y="117.6" font-family="'Noto Sans SC','Microsoft YaHei',sans-serif" font-size="16" fill="#ff453a" text-anchor="middle">+0.36亿</text>
  <text x="195" y="97.05" font-family="'Noto Sans SC','Microsoft YaHei',sans-serif" font-size="13" fill="#8e8e93" text-anchor="middle">区间主力</text>
  <text x="195" y="117.6" font-family="'Noto Sans SC','Microsoft YaHei',sans-serif" font-size="16" fill="#30d158" text-anchor="middle">-1.24亿</text>
  <text x="299" y="97.05" font-family="'Noto Sans SC','Microsoft YaHei',sans-serif" font-size="13" fill="#8e8e93" text-anchor="middle">份额申赎</text>
  <text x="299" y="117.6" font-family="'Noto Sans SC','Microsoft YaHei',sans-serif" font-size="16" fill="#ff453a" text-anchor="middle">+0.50亿</text>
  <text x="58" y="151.9" font-family="'Noto Sans SC','Microsoft YaHei',sans-serif" font-size="14" fill="#8e8e93" text-anchor="start">区间主力净流向</text>
  </g><circle cx="195" cy="195" r="194.5" fill="none" stroke="#2c2c2e" stroke-width="1"/></svg>